<svg width="49" height="50" viewBox="0 0 49 50" fill="none" xmlns="http://www.w3.org/2000/svg">
<path d="M22.9131 0H15.3044C11.1022 0 7.69568 3.40652 7.69568 7.6087C7.69568 11.8109 11.1022 15.2174 15.3044 15.2174H22.9131V0Z" fill="black" fill-opacity="0.2"/>
<path d="M25.0869 0H32.6956C36.8978 0 40.3043 3.40652 40.3043 7.6087C40.3043 11.8109 36.8978 15.2174 32.6956 15.2174H25.0869V0Z" fill="black" fill-opacity="0.2"/>
<path d="M22.9131 17.3914H15.3044C11.1022 17.3914 7.69568 20.7979 7.69568 25.0001C7.69568 29.2022 11.1022 32.6087 15.3044 32.6087H22.9131V17.3914Z" fill="black" fill-opacity="0.2"/>
<path d="M22.9131 34.7827H15.3044C11.1022 34.7827 7.69568 38.1892 7.69568 42.3914C7.69568 46.5936 11.1022 50.0001 15.3044 50.0001C19.5065 50.0001 22.9131 46.5936 22.9131 42.3914V34.7827Z" fill="black" fill-opacity="0.2"/>
<path d="M32.6956 32.6087C36.8978 32.6087 40.3043 29.2022 40.3043 25.0001C40.3043 20.7979 36.8978 17.3914 32.6956 17.3914C28.4934 17.3914 25.0869 20.7979 25.0869 25.0001C25.0869 29.2022 28.4934 32.6087 32.6956 32.6087Z" fill="black" fill-opacity="0.2"/>
</svg>
