<svg width="60" height="60" viewBox="0 0 60 60" fill="none" xmlns="http://www.w3.org/2000/svg">
<g clip-path="url(#clip0_420_2)">
<path d="M44.7711 47.3146H44.5452V47.1881H45.1537V47.3146H44.9291V47.9455H44.7711V47.3146V47.3146ZM45.9849 47.3475H45.9813L45.7572 47.9457H45.6548L45.4322 47.3475H45.4296V47.9457H45.2806V47.1883H45.4998L45.7061 47.7247L45.9118 47.1883H46.1302V47.9457H45.9848L45.9849 47.3475V47.3475Z" fill="black" fill-opacity="0.2"/>
<path d="M24.5359 31.8272C24.5359 31.8272 22.9632 32.7418 25.6551 33.0512C28.9163 33.4233 30.5831 33.3699 34.1769 32.6897C34.1769 32.6897 35.1218 33.2822 36.4413 33.7953C28.3849 37.2482 18.2079 33.5953 24.5359 31.8272ZM23.5514 27.3214C23.5514 27.3214 21.7875 28.6271 24.4814 28.9058C27.9651 29.2652 30.7163 29.2945 35.4769 28.3779C35.4769 28.3779 36.1354 29.0454 37.1708 29.4105C27.4299 32.2588 16.5804 29.6351 23.5514 27.3214" fill="black" fill-opacity="0.2"/>
<path d="M31.8508 19.6781C33.8359 21.9636 31.3293 24.0203 31.3293 24.0203C31.3293 24.0203 36.3697 21.4183 34.0549 18.1598C31.8928 15.1211 30.2348 13.6114 39.2106 8.40576C39.2107 8.40565 25.1216 11.9244 31.8508 19.6781" fill="black" fill-opacity="0.2"/>
<path d="M42.506 35.1599C42.506 35.1599 43.6699 36.1189 41.2243 36.8607C36.574 38.2694 21.8692 38.6948 17.7843 36.9169C16.3159 36.278 19.0696 35.3915 19.9358 35.2055C20.8392 35.0096 21.3554 35.0461 21.3554 35.0461C19.7224 33.8957 10.8001 37.3048 16.8233 38.2813C33.2496 40.9452 46.7669 37.0818 42.506 35.1599M25.2921 22.6528C25.2921 22.6528 17.8124 24.4294 22.6434 25.0746C24.6832 25.3477 28.7494 25.2859 32.537 24.9685C35.6325 24.7074 38.7408 24.1523 38.7408 24.1523C38.7408 24.1523 37.6493 24.6198 36.8596 25.1589C29.264 27.1566 14.5908 26.2272 18.815 24.1838C22.3875 22.457 25.2921 22.6528 25.2921 22.6528M38.71 30.1529C46.4312 26.1407 42.8613 22.2848 40.3694 22.8044C39.7586 22.9315 39.4863 23.0416 39.4863 23.0416C39.4863 23.0416 39.7132 22.6865 40.146 22.5327C45.0756 20.7996 48.8668 27.6443 38.5547 30.3553C38.5547 30.3553 38.6744 30.2485 38.71 30.1529Z" fill="black" fill-opacity="0.2"/>
<path d="M34.0549 0C34.0549 0 38.3311 4.27749 29.9992 10.8553C23.3178 16.1317 28.4756 19.1402 29.9964 22.5777C26.0965 19.0588 23.2344 15.9613 25.1545 13.0784C27.9727 8.84649 35.7802 6.79471 34.0549 0" fill="black" fill-opacity="0.2"/>
<path d="M26.0509 41.0253C33.4623 41.4997 44.8435 40.762 45.1129 37.2552C45.1129 37.2552 44.5949 38.5846 38.9877 39.6405C32.662 40.8308 24.8599 40.6919 20.2324 39.929C20.2326 39.9288 21.1798 40.7129 26.0509 41.0253" fill="black" fill-opacity="0.2"/>
<path d="M24.8364 54.4254C24.1372 55.0318 23.3988 55.3723 22.7361 55.3723C21.7903 55.3723 21.2792 54.8051 21.2792 53.8954C21.2792 52.9114 21.8269 52.1919 24.0234 52.1919H24.8363L24.8364 54.4254M26.7656 56.6021V49.8643C26.7656 48.1429 25.7839 47.0073 23.417 47.0073C22.0352 47.0073 20.8248 47.3485 19.841 47.7837L20.125 48.9763C20.8995 48.692 21.9022 48.4274 22.8863 48.4274C24.2498 48.4274 24.8364 48.9763 24.8364 50.1113V50.963H24.1559C20.8431 50.963 19.3487 52.2489 19.3487 54.179C19.3487 55.8449 20.3335 56.7918 22.1877 56.7918C23.3796 56.7918 24.2693 56.2996 25.1011 55.5795L25.252 56.6023L26.7656 56.6021V56.6021ZM33.204 56.6021H30.7979L27.9021 47.1779H30.0035L31.8003 52.9681L32.1997 54.7095C33.1087 52.1917 33.7518 49.6373 34.0733 47.1779H36.1173C35.5696 50.2811 34.5841 53.6874 33.204 56.6021M42.4345 54.4254C41.734 55.0318 40.9944 55.3723 40.3316 55.3723C39.3874 55.3723 38.8751 54.8051 38.8751 53.8954C38.8751 52.9114 39.4238 52.1919 41.6202 52.1919H42.4345V54.4254ZM44.3635 56.6021V49.8643C44.3635 48.1429 43.3795 47.0073 41.0151 47.0073C39.6325 47.0073 38.4216 47.3485 37.4382 47.7837L37.7219 48.9763C38.4967 48.692 39.5012 48.4274 40.4846 48.4274C41.8471 48.4274 42.4345 48.9763 42.4345 50.1113V50.963H41.7528C38.4391 50.963 36.9453 52.2489 36.9453 54.179C36.9453 55.8449 37.9293 56.7918 39.7832 56.7918C40.9759 56.7918 41.8653 56.2996 42.6983 55.5795L42.8498 56.6023L44.3635 56.6021V56.6021ZM17.2334 58.2024C16.6834 59.0054 15.7951 59.6406 14.8226 60L13.8701 58.8792C14.6103 58.4993 15.2451 57.8859 15.5401 57.3147C15.7952 56.8065 15.9008 56.1516 15.9008 54.5855V43.8263H17.9505V54.438C17.9504 56.5318 17.783 57.3776 17.2334 58.2024" fill="black" fill-opacity="0.2"/>
</g>
<defs>
<clipPath id="clip0_420_2">
<rect width="60" height="60" fill="white"/>
</clipPath>
</defs>
</svg>
