<svg width="50" height="50" viewBox="0 0 50 50" fill="none" xmlns="http://www.w3.org/2000/svg">
<path d="M25 0C12.6453 0 2.61255 10.0329 2.61255 22.3875C2.61255 29.2417 5.69984 35.3813 10.5592 39.4896L19.9544 23.2423L19.1365 22.4283C18.8969 22.1885 18.7761 21.9858 18.7705 21.7977C18.7692 21.7774 18.7692 21.757 18.7705 21.7367H18.75V16.4063C18.75 15.124 19.8115 14.0667 21.0938 14.0667H22.4163V9.87146H27.6042V14.0667H28.9063C30.209 14.0667 31.25 15.124 31.2705 16.4267V21.7163H31.25V21.7367H31.2459C31.2392 21.9175 31.1394 22.1525 30.8838 22.4081L30.8636 22.4283L30.0496 23.2423L34.078 30.2042C35.8894 28.0875 36.9873 25.3594 36.9873 22.3875H41.1623C41.1623 26.9267 39.2673 31.0413 36.2548 33.9721L39.4409 39.4938C44.3013 35.3852 47.3878 29.2423 47.3878 22.3875C47.4082 10.0125 37.375 0 25 0ZM39.4409 39.4938C38.3706 40.3982 37.2182 41.2006 35.9986 41.8904L39.1642 47.3633C39.2628 47.5382 39.4043 47.6852 39.5753 47.7904L42.7084 49.9269C42.8305 50.0083 42.973 50.0083 43.0948 49.9473C43.2171 49.866 43.2782 49.744 43.2782 49.6015L42.9525 45.8377C42.9321 45.6342 42.8713 45.451 42.7694 45.2679L39.4409 39.494V39.4938ZM35.9986 41.8904L32.8778 36.495C30.4785 37.8432 27.7725 38.5508 25.0205 38.5498C22.2684 38.5508 19.5624 37.8432 17.1632 36.495L14.0382 41.9067C17.2798 43.7331 21.0182 44.7796 25 44.7796C28.9963 44.7796 32.749 43.7292 35.9986 41.8904ZM14.0382 41.9067C12.8049 41.2124 11.64 40.4032 10.559 39.4898L7.23067 45.2473C7.12901 45.4306 7.06797 45.6135 7.04755 45.8171L6.76276 49.6013C6.74234 49.7438 6.8238 49.8658 6.94588 49.9471C7.06797 50.0283 7.21047 50.0081 7.33234 49.9267L10.4657 47.8108C10.6284 47.6888 10.7707 47.5465 10.8723 47.3838L14.0382 41.9067V41.9067ZM25 16.101V16.1417C23.2734 16.1417 21.8928 17.5213 21.8873 19.2667C21.8928 20.9923 23.2936 22.3875 25 22.3875H25.0205C26.7267 22.3673 28.1275 20.9919 28.1332 19.2667C28.1278 17.5415 26.7269 16.1621 25.0205 16.1417L25 16.101ZM23.0265 26.3183L19.2384 32.8735C21.002 33.849 22.9847 34.36 25 34.3588C27.0965 34.3588 29.0723 33.8302 30.7415 32.894L26.9613 26.3306L26.18 27.1119C25.8748 27.4375 25.4478 27.6 25.0205 27.6H24.9796C24.5725 27.6 24.1457 27.4375 23.82 27.1119L23.0265 26.3183V26.3183Z" fill="black" fill-opacity="0.2"/>
</svg>
